Coordinates
version=1
nRows=15
nColumns=34
inDegrees=yes

Units are S.I. units (second, meters, Newtons, ...)
If the header above contains a line with 'inDegrees', this indicates whether rotational values are in degrees (yes) or radians (no).

endheader
time	pelvis_tilt	pelvis_list	pelvis_rotation	pelvis_tx	pelvis_ty	pelvis_tz	hip_flexion_r	hip_adduction_r	hip_rotation_r	knee_angle_r	ankle_angle_r	subtalar_angle_r	mtp_angle_r	hip_flexion_l	hip_adduction_l	hip_rotation_l	knee_angle_l	ankle_angle_l	subtalar_angle_l	mtp_angle_l	lumbar_extension	lumbar_bending	lumbar_rotation	arm_flex_r	arm_add_r	arm_rot_r	elbow_flex_r	pro_sup_r	arm_flex_l	arm_add_l	arm_rot_l	elbow_flex_l	pro_sup_l
      1.65000000	     45.02295332	      8.29233629	    -28.13964577	      1.76533239	      0.96638607	     -0.13777158	    -29.85016273	    -35.90649877	    -17.40313584	     67.78629016	     35.76992320	      1.28671423	      0.00000000	    -30.00000025	     30.00000025	     15.46264592	      0.00000000	    -17.41147818	    -35.00000000	      0.00000000	    -83.47994519	    -23.34947542	    -21.05125802	     19.62852671	      1.85222368	     -1.41863237	     23.81693139	    119.74817918	      8.82793341	     -1.68261648	      1.42083044	      9.88562567	     96.13121042
      1.66666670	     44.43191689	      8.26401878	    -28.61833947	      1.77728569	      0.96836517	     -0.13392796	    -28.12602347	    -35.91679849	    -16.79682286	     68.32010072	     37.16794109	      2.03840907	      0.00000000	    -30.00000025	     30.00000025	     14.61335476	      0.00000000	    -17.57914711	    -35.00000000	      0.00000000	    -83.01761292	    -24.14491003	    -20.65767533	     19.52837332	      1.61772950	     -0.80606750	     23.62832311	    119.74817918	      8.31998928	     -1.04121103	      1.41836779	      8.95145670	     95.55796750
      1.68333330	     43.77841763	      8.40598326	    -28.81417917	      1.78816534	      0.96947484	     -0.13149311	    -26.57157207	    -36.11037326	    -16.99166960	     68.43190888	     38.17993213	      3.22274052	      0.00000000	    -30.00000025	     30.00000025	     14.41699787	      0.00000000	    -18.01330789	    -35.00000000	      0.00000000	    -82.22130063	    -24.79119853	    -20.29573362	     19.46807309	      0.78351824	      3.83785494	     22.98368271	    119.63350400	      8.18545478	     -0.14065441	      0.71572682	      7.01208591	     89.04361254
      1.70000000	     43.16723953	      8.59439295	    -28.88507431	      1.79662258	      0.96849270	     -0.12955521	    -25.01060638	    -36.36234483	    -17.45392835	     68.24877195	     39.57882265	      4.23959034	      0.00000000	    -30.00000025	     30.00000025	     14.16560100	      0.00000000	    -17.86545596	    -35.00000000	      0.00000000	    -81.70605544	    -25.19891270	    -19.66203456	     19.24141733	      0.33148775	      3.77961309	     22.69748728	    119.46683587	      7.51946930	      0.44119393	      0.74270530	      7.55519389	     88.46126837
      1.71666670	     42.62630703	      8.88766131	    -28.67040587	      1.80339350	      0.96763583	     -0.12824528	    -23.43874925	    -36.78229882	    -18.40385867	     67.76832104	     40.94135599	      5.82585901	      0.00000000	    -30.00000025	     30.00000025	     14.03903951	      0.00000000	    -18.15826452	    -35.00000000	      0.00000000	    -81.38653031	    -25.26383838	    -19.43799191	     19.11479470	     -0.01590944	      3.83402564	     22.60956607	    119.26018462	      7.28421635	      1.02285412	      0.35753861	      7.56672690	     87.50541674
      1.73333330	     42.16980550	      9.20878818	    -28.39169490	      1.80955679	      0.96804024	     -0.12674429	    -21.61761434	    -37.29622316	    -19.31157096	     67.14571490	     41.75204562	      7.26009244	      0.00000000	    -30.00000025	     30.00000025	     13.91567554	      0.00000000	    -18.60899845	    -35.00000000	      0.00000000	    -81.33739051	    -25.20448453	    -19.39377001	     19.07091720	     -0.27503038	      4.07800394	     22.50547826	    119.03040792	      7.31837564	      1.56920488	     -0.44438532	      7.66540890	     86.11475456
      1.75000000	     41.78630543	      9.52625730	    -28.13476663	      1.81559702	      0.96828832	     -0.12466813	    -19.57446359	    -37.61850222	    -19.75241737	     66.50505501	     41.73791994	      7.30458898	      0.00000000	    -30.00000025	     30.00000025	     13.79033055	      0.00000000	    -18.69923845	    -35.00000000	      0.00000000	    -81.31406162	    -25.23355023	    -19.53978689	     19.04631431	     -0.33936747	      4.08895396	     22.47370171	    119.02190472	      7.47750603	      1.98764852	     -0.46030386	      7.76340777	     86.05885813
      1.76666670	     41.41030733	      9.93305432	    -27.68609173	      1.82160843	      0.96771547	     -0.12325298	    -17.93214778	    -38.29327309	    -21.39432861	     65.82514666	     42.20462157	      9.90384670	      0.00000000	    -30.00000025	     30.00000025	     13.72217951	      0.00000000	    -19.31809140	    -35.00000000	      0.00000000	    -81.42296563	    -24.75219947	    -20.06499595	     19.55646985	     -0.56019455	      6.30693638	     21.80329705	    118.40202047	      7.27596447	      2.96155166	     -5.29499659	      9.19233881	     79.73043871
      1.78333330	     41.18028299	     10.08521100	    -27.72995484	      1.82593445	      0.96625183	     -0.12056856	    -16.01833056	    -38.32265659	    -21.73847266	     65.05065883	     42.57288353	     10.08142214	      0.00000000	    -30.00000025	     30.00000025	     13.18707405	      0.00000000	    -20.27833859	    -35.00000000	      0.00000000	    -81.46548733	    -24.80764249	    -20.16701444	     19.77040552	     -0.60703345	      6.37663877	     21.81296361	    118.34032645	      7.50483059	      3.61351012	     -5.40603875	      9.40805087	     79.45547492
      1.80000000	     40.91282141	     10.39290234	    -27.61413802	      1.83060333	      0.96555405	     -0.11757910	    -14.65726836	    -38.62428629	    -23.42624820	     63.97392961	     44.09277000	     12.56551328	      0.00000000	    -30.00000025	     30.00000025	     12.85784527	      0.00000000	    -20.71047068	    -35.00000000	      0.00000000	    -81.49763075	    -24.86035634	    -20.52756046	     19.84171118	     -0.39673543	      6.56973762	     21.82612529	    118.08340000	      7.52145329	      4.21530012	     -6.53830365	     10.27023440	     77.90023076
      1.81666670	     40.65996693	     10.80073635	    -27.39635724	      1.83527954	      0.96598554	     -0.11440154	    -13.47698268	    -38.88069393	    -25.33996735	     62.64200525	     45.62232950	     14.94180946	      0.00000000	    -30.00000025	     30.00000025	     13.11016114	      0.00000000	    -21.83053231	    -35.00000000	      0.00000000	    -81.59874039	    -24.80338766	    -21.03699769	     19.79804520	      0.01450642	      6.38840052	     21.88787942	    117.90527106	      7.81310867	      4.79429427	     -7.42956322	     10.85212684	     76.82831056
      1.83333330	     40.39613673	     11.34044357	    -26.99092378	      1.84046682	      0.96668717	     -0.11104601	    -12.56635666	    -39.23732609	    -27.70286957	     61.05812838	     47.75306501	     18.41700604	      0.00000000	    -30.00000025	     30.00000025	     13.71266612	      0.00000000	    -22.36273184	    -35.00000000	      0.00000000	    -81.55441210	    -24.61115545	    -21.58277688	     19.39367310	      0.75811390	      5.78945258	     21.99342119	    117.74787119	      7.88735268	      5.35634203	     -8.44619439	     11.61127085	     75.72368400
      1.85000000	     40.17859047	     11.97847677	    -26.49324848	      1.84539806	      0.96647482	     -0.10703906	    -11.60587602	    -39.55111799	    -29.67042237	     59.50688481	     49.51324229	     21.78623397	      0.00000000	    -30.00000025	     30.00000025	     14.57416739	      0.00000000	    -22.61940084	    -35.00000000	      0.00000000	    -81.58903366	    -24.56274930	    -22.21542701	     18.68632977	      1.81702221	      4.72716657	     22.05442197	    117.63603374	      8.03493373	      5.81362031	     -9.49423787	     12.31025975	     74.65988315
      1.86666670	     40.00874586	     12.67659475	    -25.89169284	      1.84994612	      0.96555862	     -0.10260235	    -10.65768453	    -39.86591121	    -31.31067446	     58.09534286	     50.00000000	     25.31489760	      0.00000000	    -30.00000025	     30.00000025	     15.70483235	      0.00000000	    -22.59869095	    -35.00000000	      0.00000000	    -81.43178251	    -24.40420917	    -22.83785578	     17.97369916	      3.13608766	      2.12867655	     22.20043416	    117.54528164	      8.03212255	      6.33034591	    -11.09256596	     13.15685515	     73.10037110
      1.88333330	     40.00855989	     13.24927787	    -25.58546233	      1.85300273	      0.96505557	     -0.09681670	     -9.07856885	    -39.63715443	    -30.68887686	     57.04669713	     49.49498111	     26.27049001	      0.00000000	    -30.00000025	     30.00000025	     16.34903851	      0.00000000	    -22.59896029	    -35.00000000	      0.00000000	    -81.44048403	    -24.82032017	    -23.08306689	     17.32230283	      4.09460420	      1.94312432	     22.13622268	    117.56961163	      8.37202147	      6.65312379	    -11.17037084	     13.32404939	     72.99402599
